<?xml version="1.0"?>
<svg version="1.1" xmlns="http://www.w3.org/2000/svg" width="400px" height="200px" style="border: dashed 2px #aaa"><path fill="#0095ff" d="M67.978515625,134.423828125q0-10.595703125,0.9521484375-21.2158203125t3.9794921875-20.9228515625q0.87890625-3.076171875,2.294921875-6.0791015625t3.466796875-5.3466796875t4.8828125-3.80859375t6.73828125-1.46484375l1.025390625,0.09765625q4.19921875,0.5859375,6.201171875,3.3935546875t2.001953125,7.0068359375q0,1.123046875-0.2685546875,2.8076171875t-0.8544921875,3.2470703125t-1.5869140625,2.6611328125t-2.5146484375,1.0986328125q-0.68359375-0.09765625-1.2451171875-0.244140625t-1.0498046875-0.634765625q0.78125-1.708984375,1.3916015625-3.564453125t0.6103515625-4.248046875q0-0.87890625-0.146484375-2.24609375t-0.5615234375-2.7099609375t-1.0986328125-2.34375t-1.904296875-1.0009765625q-3.076171875,0-5.17578125,3.4423828125t-3.515625,8.7890625t-2.099609375,11.81640625t-1.0498046875,12.5t-0.4150390625,10.888671875t-0.048828125,6.8603515625q0,2.34375-0.048828125,5.17578125l0,0.634765625q0.048828125,2.490234375,0.341796875,4.736328125q0.390625,2.5390625,1.513671875,4.39453125t3.515625,2.1484375q0.732421875,0.09765625,1.416015625,0.09765625q2.83203125,0,5.126953125-1.611328125q2.83203125-2.001953125,5.029296875-5.2001953125t3.90625-7.03125t3.1494140625-7.2509765625t2.8076171875-5.6640625t2.83203125-2.24609375q0.48828125,0,1.46484375,0.1953125t0.9765625,0.927734375q0,0.1953125-0.09765625,0.537109375t-0.244140625,0.537109375q-1.318359375,5.17578125-3.3447265625,10.7421875t-5.17578125,10.1318359375t-7.71484375,7.4462890625t-10.9619140625,2.880859375q-4.58984375,0-7.4462890625-1.7333984375t-4.39453125-4.638671875t-2.099609375-6.5673828125t-0.5615234375-7.421875z M119.03662109375,132.71484375q0-2.783203125,0.7080078125-5.7373046875t2.24609375-5.322265625t3.8818359375-3.857421875t5.6640625-1.4892578125q2.490234375,0,5.2490234375,0.8544921875t5.0537109375,2.44140625t3.7353515625,3.8818359375t1.4404296875,5.126953125q0,3.41796875-1.2451171875,6.494140625t-3.4912109375,5.4931640625t-5.2490234375,3.80859375t-6.5185546875,1.3916015625q-2.880859375,0-5.029296875-1.0498046875t-3.5888671875-2.8076171875t-2.1484375-4.150390625t-0.7080078125-5.078125z M126.21435546875,132.6171875q0,0.87890625,0.2685546875,2.587890625t0.8056640625,3.3447265625t1.3916015625,2.83203125t2.0751953125,1.0986328125q2.587890625-0.29296875,4.2724609375-1.6845703125t2.734375-3.3935546875t1.46484375-4.345703125t0.4150390625-4.443359375q0-2.685546875-1.0498046875-4.4921875t-3.4423828125-2.9296875q0,0.09765625,0.09765625,0.09765625t0.09765625-0.09765625l-1.220703125-0.29296875q-0.48828125-0.1953125-1.1962890625-0.439453125t-1.3916015625-1.07421875q-1.904296875,0.68359375-2.9541015625,1.7578125t-1.5869140625,2.6123046875t-0.6591796875,3.6865234375t-0.1220703125,5.17578125z M154.0302734375,127.490234375q0-0.9765625,0.2197265625-2.587890625t0.5126953125-3.1982421875t0.68359375-2.9541015625t0.927734375-1.7578125q0.390625-0.390625,1.3427734375-0.78125t2.001953125-0.5615234375t1.953125,0.146484375t1.0986328125,1.2939453125q-0.68359375,0.87890625-1.2451171875,3.0029296875t-0.8544921875,4.7119140625q-0.244140625,2.197265625-0.244140625,4.541015625l0,0.830078125q0.048828125,2.734375,0.48828125,5.029296875t1.3427734375,3.7841796875t2.5146484375,1.4892578125q3.41796875,0,6.25-3.1494140625t5.029296875-7.6904296875t3.857421875-9.6435546875t2.83203125-8.9111328125q0.29296875-1.123046875,1.3916015625-1.513671875t2.3681640625-0.2685546875t2.2705078125,0.6103515625t1.1962890625,1.171875q-0.9765625,8.203125-1.5380859375,16.40625t-0.5615234375,16.50390625q0,1.611328125,0.146484375,2.9541015625t-0.146484375,2.294921875t-1.2939453125,1.513671875t-3.1982421875,0.5615234375q-0.48828125,0-1.2451171875-0.09765625t-1.5625-0.3173828125t-1.3671875-0.6591796875t-0.5615234375-1.025390625q0-3.61328125,0.2685546875-7.421875t0.7568359375-7.373046875q-1.318359375,1.904296875-2.9052734375,3.7841796875t-3.4912109375,3.3935546875t-4.1015625,2.4169921875t-4.736328125,0.9033203125q-3.61328125,0-5.6884765625-1.708984375t-3.125-4.2724609375t-1.318359375-5.5908203125t-0.2685546875-5.859375z M199.96142578125,118.115234375q0-2.001953125,0.7080078125-3.369140625t3.0029296875-1.3671875q0.87890625,0,2.197265625,0.2685546875t1.513671875,1.3427734375q0.48828125,2.880859375,0.537109375,6.25t0.341796875,6.34765625q1.123046875-2.197265625,2.880859375-4.736328125t4.00390625-4.6875t4.8828125-3.564453125t5.37109375-1.416015625q0.1953125,0,0.732421875,0.146484375t1.0009765625,0.4150390625t0.5615234375,0.6103515625t-0.537109375,0.634765625q-0.1953125,0.5859375-0.830078125,0.7080078125t-1.123046875,0.1220703125q-0.29296875,0-0.927734375-0.244140625q-3.61328125,1.904296875-6.15234375,5.17578125t-4.150390625,7.2509765625t-2.34375,8.3984375t-0.732421875,8.6181640625q0,2.099609375-0.9521484375,2.5390625t-3.0517578125,0.439453125q-1.123046875,0-2.3681640625-0.244140625t-1.7333984375-1.5625q-0.87890625-2.783203125-1.4404296875-6.396484375t-0.8544921875-7.4462890625t-0.4150390625-7.5439453125t-0.1220703125-6.689453125z M234.662109375,119.189453125q0-2.001953125,1.171875-3.4423828125t2.8564453125-2.34375t3.6865234375-1.3427734375t3.7109375-0.439453125q1.318359375,0,3.515625,0.390625t4.296875,1.171875t3.6376953125,2.05078125t1.5380859375,2.978515625q0,0.78125-0.5859375,1.3916015625t-1.220703125,0.6103515625q-1.318359375,0-2.392578125-0.8544921875t-2.2216796875-1.806640625t-2.5146484375-1.806640625t-3.076171875-0.8544921875t-3.1005859375,1.0986328125t-1.3916015625,2.9052734375q0,2.978515625,2.099609375,5.8349609375t4.6142578125,6.005859375t4.6142578125,6.6162109375t2.099609375,7.666015625q0,1.806640625-0.7568359375,3.0517578125t-2.001953125,2.0263671875t-2.8076171875,1.1962890625t-3.02734375,0.4150390625q-1.611328125,0-3.759765625-0.7568359375t-4.052734375-2.001953125t-3.1982421875-2.9052734375t-1.2939453125-3.466796875q0-0.87890625,1.2451171875-1.123046875t1.8310546875-0.244140625q0.29296875,0,0.9033203125,0.1953125t1.1962890625,0.439453125t1.0498046875,0.537109375t0.3662109375,0.634765625q0.48828125,0.5859375,1.4892578125,1.7333984375t2.001953125,1.85546875t1.7578125,0.5126953125t0.7568359375-2.197265625q0-3.80859375-2.05078125-7.0068359375t-4.4677734375-6.25t-4.4677734375-6.0546875t-2.05078125-6.4208984375z M269.06982421875,133.7890625q0-3.41796875,0.7568359375-8.056640625t2.5634765625-8.7890625t4.7607421875-7.0556640625t7.4462890625-2.9052734375q4.19921875,0,6.298828125,2.4169921875t2.099609375,6.5185546875q0,2.685546875-1.0009765625,5.8837890625t-2.8564453125,6.0546875t-4.39453125,4.7607421875t-5.6640625,1.904296875l-1.26953125-0.09765625q0,1.318359375,0.390625,3.5400390625t1.1474609375,4.4189453125t1.953125,3.857421875t2.9052734375,1.66015625q2.490234375,0,4.78515625-2.001953125t4.345703125-4.443359375t3.80859375-4.443359375t3.22265625-2.001953125q0.78125,0,1.611328125,0.244140625t0.927734375,1.3671875q0,0.68359375-0.3662109375,1.123046875t-0.6591796875,0.9765625q-1.513671875,2.587890625-3.2958984375,4.931640625t-4.0283203125,4.248046875t-4.9072265625,3.0029296875t-5.8837890625,1.0986328125q-4.19921875,0-6.982421875-1.4892578125t-4.4921875-4.00390625t-2.4658203125-5.810546875t-0.7568359375-6.9091796875z M277.81005859375,130.078125l1.3671875,1.220703125q0.9765625,0.87890625,1.953125,0.390625t1.7578125-1.7822265625t1.4404296875-3.1982421875t1.171875-3.90625t0.7568359375-3.90625t0.244140625-3.173828125l0-1.66015625t-0.146484375-1.7578125t-0.5126953125-1.3916015625t-1.1474609375-0.7080078125q-0.244140625-0.048828125-0.439453125-0.048828125q-1.66015625,0-2.83203125,2.099609375q-1.26953125,2.34375-2.05078125,5.6884765625t-1.123046875,6.8603515625t-0.439453125,5.2734375z M309.8740234375,119.189453125q0-2.001953125,1.171875-3.4423828125t2.8564453125-2.34375t3.6865234375-1.3427734375t3.7109375-0.439453125q1.318359375,0,3.515625,0.390625t4.296875,1.171875t3.6376953125,2.05078125t1.5380859375,2.978515625q0,0.78125-0.5859375,1.3916015625t-1.220703125,0.6103515625q-1.318359375,0-2.392578125-0.8544921875t-2.2216796875-1.806640625t-2.5146484375-1.806640625t-3.076171875-0.8544921875t-3.1005859375,1.0986328125t-1.3916015625,2.9052734375q0,2.978515625,2.099609375,5.8349609375t4.6142578125,6.005859375t4.6142578125,6.6162109375t2.099609375,7.666015625q0,1.806640625-0.7568359375,3.0517578125t-2.001953125,2.0263671875t-2.8076171875,1.1962890625t-3.02734375,0.4150390625q-1.611328125,0-3.759765625-0.7568359375t-4.052734375-2.001953125t-3.1982421875-2.9052734375t-1.2939453125-3.466796875q0-0.87890625,1.2451171875-1.123046875t1.8310546875-0.244140625q0.29296875,0,0.9033203125,0.1953125t1.1962890625,0.439453125t1.0498046875,0.537109375t0.3662109375,0.634765625q0.48828125,0.5859375,1.4892578125,1.7333984375t2.001953125,1.85546875t1.7578125,0.5126953125t0.7568359375-2.197265625q0-3.80859375-2.05078125-7.0068359375t-4.4677734375-6.25t-4.4677734375-6.0546875t-2.05078125-6.4208984375z"/><path fill="#d11fcb" d="M72.978515625,134.423828125q0-10.595703125,0.9521484375-21.2158203125t3.9794921875-20.9228515625q0.87890625-3.076171875,2.294921875-6.0791015625t3.466796875-5.3466796875t4.8828125-3.80859375t6.73828125-1.46484375l1.025390625,0.09765625q4.19921875,0.5859375,6.201171875,3.3935546875t2.001953125,7.0068359375q0,1.123046875-0.2685546875,2.8076171875t-0.8544921875,3.2470703125t-1.5869140625,2.6611328125t-2.5146484375,1.0986328125q-0.68359375-0.09765625-1.2451171875-0.244140625t-1.0498046875-0.634765625q0.78125-1.708984375,1.3916015625-3.564453125t0.6103515625-4.248046875q0-0.87890625-0.146484375-2.24609375t-0.5615234375-2.7099609375t-1.0986328125-2.34375t-1.904296875-1.0009765625q-3.076171875,0-5.17578125,3.4423828125t-3.515625,8.7890625t-2.099609375,11.81640625t-1.0498046875,12.5t-0.4150390625,10.888671875t-0.048828125,6.8603515625q0,2.34375-0.048828125,5.17578125l0,0.634765625q0.048828125,2.490234375,0.341796875,4.736328125q0.390625,2.5390625,1.513671875,4.39453125t3.515625,2.1484375q0.732421875,0.09765625,1.416015625,0.09765625q2.83203125,0,5.126953125-1.611328125q2.83203125-2.001953125,5.029296875-5.2001953125t3.90625-7.03125t3.1494140625-7.2509765625t2.8076171875-5.6640625t2.83203125-2.24609375q0.48828125,0,1.46484375,0.1953125t0.9765625,0.927734375q0,0.1953125-0.09765625,0.537109375t-0.244140625,0.537109375q-1.318359375,5.17578125-3.3447265625,10.7421875t-5.17578125,10.1318359375t-7.71484375,7.4462890625t-10.9619140625,2.880859375q-4.58984375,0-7.4462890625-1.7333984375t-4.39453125-4.638671875t-2.099609375-6.5673828125t-0.5615234375-7.421875z M124.03662109375,132.71484375q0-2.783203125,0.7080078125-5.7373046875t2.24609375-5.322265625t3.8818359375-3.857421875t5.6640625-1.4892578125q2.490234375,0,5.2490234375,0.8544921875t5.0537109375,2.44140625t3.7353515625,3.8818359375t1.4404296875,5.126953125q0,3.41796875-1.2451171875,6.494140625t-3.4912109375,5.4931640625t-5.2490234375,3.80859375t-6.5185546875,1.3916015625q-2.880859375,0-5.029296875-1.0498046875t-3.5888671875-2.8076171875t-2.1484375-4.150390625t-0.7080078125-5.078125z M131.21435546875,132.6171875q0,0.87890625,0.2685546875,2.587890625t0.8056640625,3.3447265625t1.3916015625,2.83203125t2.0751953125,1.0986328125q2.587890625-0.29296875,4.2724609375-1.6845703125t2.734375-3.3935546875t1.46484375-4.345703125t0.4150390625-4.443359375q0-2.685546875-1.0498046875-4.4921875t-3.4423828125-2.9296875q0,0.09765625,0.09765625,0.09765625t0.09765625-0.09765625l-1.220703125-0.29296875q-0.48828125-0.1953125-1.1962890625-0.439453125t-1.3916015625-1.07421875q-1.904296875,0.68359375-2.9541015625,1.7578125t-1.5869140625,2.6123046875t-0.6591796875,3.6865234375t-0.1220703125,5.17578125z M159.0302734375,127.490234375q0-0.9765625,0.2197265625-2.587890625t0.5126953125-3.1982421875t0.68359375-2.9541015625t0.927734375-1.7578125q0.390625-0.390625,1.3427734375-0.78125t2.001953125-0.5615234375t1.953125,0.146484375t1.0986328125,1.2939453125q-0.68359375,0.87890625-1.2451171875,3.0029296875t-0.8544921875,4.7119140625q-0.244140625,2.197265625-0.244140625,4.541015625l0,0.830078125q0.048828125,2.734375,0.48828125,5.029296875t1.3427734375,3.7841796875t2.5146484375,1.4892578125q3.41796875,0,6.25-3.1494140625t5.029296875-7.6904296875t3.857421875-9.6435546875t2.83203125-8.9111328125q0.29296875-1.123046875,1.3916015625-1.513671875t2.3681640625-0.2685546875t2.2705078125,0.6103515625t1.1962890625,1.171875q-0.9765625,8.203125-1.5380859375,16.40625t-0.5615234375,16.50390625q0,1.611328125,0.146484375,2.9541015625t-0.146484375,2.294921875t-1.2939453125,1.513671875t-3.1982421875,0.5615234375q-0.48828125,0-1.2451171875-0.09765625t-1.5625-0.3173828125t-1.3671875-0.6591796875t-0.5615234375-1.025390625q0-3.61328125,0.2685546875-7.421875t0.7568359375-7.373046875q-1.318359375,1.904296875-2.9052734375,3.7841796875t-3.4912109375,3.3935546875t-4.1015625,2.4169921875t-4.736328125,0.9033203125q-3.61328125,0-5.6884765625-1.708984375t-3.125-4.2724609375t-1.318359375-5.5908203125t-0.2685546875-5.859375z M204.96142578125,118.115234375q0-2.001953125,0.7080078125-3.369140625t3.0029296875-1.3671875q0.87890625,0,2.197265625,0.2685546875t1.513671875,1.3427734375q0.48828125,2.880859375,0.537109375,6.25t0.341796875,6.34765625q1.123046875-2.197265625,2.880859375-4.736328125t4.00390625-4.6875t4.8828125-3.564453125t5.37109375-1.416015625q0.1953125,0,0.732421875,0.146484375t1.0009765625,0.4150390625t0.5615234375,0.6103515625t-0.537109375,0.634765625q-0.1953125,0.5859375-0.830078125,0.7080078125t-1.123046875,0.1220703125q-0.29296875,0-0.927734375-0.244140625q-3.61328125,1.904296875-6.15234375,5.17578125t-4.150390625,7.2509765625t-2.34375,8.3984375t-0.732421875,8.6181640625q0,2.099609375-0.9521484375,2.5390625t-3.0517578125,0.439453125q-1.123046875,0-2.3681640625-0.244140625t-1.7333984375-1.5625q-0.87890625-2.783203125-1.4404296875-6.396484375t-0.8544921875-7.4462890625t-0.4150390625-7.5439453125t-0.1220703125-6.689453125z M239.662109375,119.189453125q0-2.001953125,1.171875-3.4423828125t2.8564453125-2.34375t3.6865234375-1.3427734375t3.7109375-0.439453125q1.318359375,0,3.515625,0.390625t4.296875,1.171875t3.6376953125,2.05078125t1.5380859375,2.978515625q0,0.78125-0.5859375,1.3916015625t-1.220703125,0.6103515625q-1.318359375,0-2.392578125-0.8544921875t-2.2216796875-1.806640625t-2.5146484375-1.806640625t-3.076171875-0.8544921875t-3.1005859375,1.0986328125t-1.3916015625,2.9052734375q0,2.978515625,2.099609375,5.8349609375t4.6142578125,6.005859375t4.6142578125,6.6162109375t2.099609375,7.666015625q0,1.806640625-0.7568359375,3.0517578125t-2.001953125,2.0263671875t-2.8076171875,1.1962890625t-3.02734375,0.4150390625q-1.611328125,0-3.759765625-0.7568359375t-4.052734375-2.001953125t-3.1982421875-2.9052734375t-1.2939453125-3.466796875q0-0.87890625,1.2451171875-1.123046875t1.8310546875-0.244140625q0.29296875,0,0.9033203125,0.1953125t1.1962890625,0.439453125t1.0498046875,0.537109375t0.3662109375,0.634765625q0.48828125,0.5859375,1.4892578125,1.7333984375t2.001953125,1.85546875t1.7578125,0.5126953125t0.7568359375-2.197265625q0-3.80859375-2.05078125-7.0068359375t-4.4677734375-6.25t-4.4677734375-6.0546875t-2.05078125-6.4208984375z M274.06982421875,133.7890625q0-3.41796875,0.7568359375-8.056640625t2.5634765625-8.7890625t4.7607421875-7.0556640625t7.4462890625-2.9052734375q4.19921875,0,6.298828125,2.4169921875t2.099609375,6.5185546875q0,2.685546875-1.0009765625,5.8837890625t-2.8564453125,6.0546875t-4.39453125,4.7607421875t-5.6640625,1.904296875l-1.26953125-0.09765625q0,1.318359375,0.390625,3.5400390625t1.1474609375,4.4189453125t1.953125,3.857421875t2.9052734375,1.66015625q2.490234375,0,4.78515625-2.001953125t4.345703125-4.443359375t3.80859375-4.443359375t3.22265625-2.001953125q0.78125,0,1.611328125,0.244140625t0.927734375,1.3671875q0,0.68359375-0.3662109375,1.123046875t-0.6591796875,0.9765625q-1.513671875,2.587890625-3.2958984375,4.931640625t-4.0283203125,4.248046875t-4.9072265625,3.0029296875t-5.8837890625,1.0986328125q-4.19921875,0-6.982421875-1.4892578125t-4.4921875-4.00390625t-2.4658203125-5.810546875t-0.7568359375-6.9091796875z M282.81005859375,130.078125l1.3671875,1.220703125q0.9765625,0.87890625,1.953125,0.390625t1.7578125-1.7822265625t1.4404296875-3.1982421875t1.171875-3.90625t0.7568359375-3.90625t0.244140625-3.173828125l0-1.66015625t-0.146484375-1.7578125t-0.5126953125-1.3916015625t-1.1474609375-0.7080078125q-0.244140625-0.048828125-0.439453125-0.048828125q-1.66015625,0-2.83203125,2.099609375q-1.26953125,2.34375-2.05078125,5.6884765625t-1.123046875,6.8603515625t-0.439453125,5.2734375z M314.8740234375,119.189453125q0-2.001953125,1.171875-3.4423828125t2.8564453125-2.34375t3.6865234375-1.3427734375t3.7109375-0.439453125q1.318359375,0,3.515625,0.390625t4.296875,1.171875t3.6376953125,2.05078125t1.5380859375,2.978515625q0,0.78125-0.5859375,1.3916015625t-1.220703125,0.6103515625q-1.318359375,0-2.392578125-0.8544921875t-2.2216796875-1.806640625t-2.5146484375-1.806640625t-3.076171875-0.8544921875t-3.1005859375,1.0986328125t-1.3916015625,2.9052734375q0,2.978515625,2.099609375,5.8349609375t4.6142578125,6.005859375t4.6142578125,6.6162109375t2.099609375,7.666015625q0,1.806640625-0.7568359375,3.0517578125t-2.001953125,2.0263671875t-2.8076171875,1.1962890625t-3.02734375,0.4150390625q-1.611328125,0-3.759765625-0.7568359375t-4.052734375-2.001953125t-3.1982421875-2.9052734375t-1.2939453125-3.466796875q0-0.87890625,1.2451171875-1.123046875t1.8310546875-0.244140625q0.29296875,0,0.9033203125,0.1953125t1.1962890625,0.439453125t1.0498046875,0.537109375t0.3662109375,0.634765625q0.48828125,0.5859375,1.4892578125,1.7333984375t2.001953125,1.85546875t1.7578125,0.5126953125t0.7568359375-2.197265625q0-3.80859375-2.05078125-7.0068359375t-4.4677734375-6.25t-4.4677734375-6.0546875t-2.05078125-6.4208984375z"/></svg>
